<svg xmlns="http://www.w3.org/2000/svg" width="512" height="512" viewBox="0 0 512 512">
  <rect width="512" height="512" rx="116" fill="#7c3aed"/>
  <!-- open book (Baca) -->
  <g fill="#ffffff">
    <path d="M256 190 C 216 170 160 164 116 172 L 116 356 C 160 348 216 352 256 372 Z"/>
    <path d="M256 190 C 296 170 352 164 396 172 L 396 356 C 352 348 296 352 256 372 Z" fill-opacity="0.88"/>
  </g>
  <!-- spine -->
  <rect x="251" y="190" width="10" height="182" rx="5" fill="#7c3aed"/>
  <!-- spark (Ai) -->
  <path d="M404 116 C 409 137 416 144 437 149 C 416 154 409 161 404 182 C 399 161 392 154 371 149 C 392 144 399 137 404 116 Z" fill="#ffffff"/>
</svg>
